<svg width="478" height="478" xmlns="http://www.w3.org/2000/svg" xmlns:xlink="http://www.w3.org/1999/xlink" overflow="hidden"><defs><clipPath id="clip0"><rect x="836" y="61" width="478" height="478"/></clipPath></defs><g clip-path="url(#clip0)" transform="translate(-836 -61)"><path d="M1023.78 163.886 1023.78 78.0669C1023.77 68.6382 1016.13 60.997 1006.7 61 1001.86 61.001 997.257 63.0536 994.02 66.6456L840.376 237.362C834.758 243.62 834.533 253.036 839.847 259.555L993.491 447.343C999.461 454.64 1010.22 455.716 1017.51 449.746 1021.47 446.512 1023.77 441.678 1023.78 436.57L1023.78 351.503C1158.64 355.89 1242.8 413.541 1280.74 527.341 1283.07 534.303 1289.58 538.997 1296.92 539 1297.84 539.003 1298.76 538.928 1299.67 538.778 1307.93 537.431 1313.99 530.297 1313.99 521.928 1313.99 320.893 1192.97 173.206 1023.78 163.886ZM1006.7 317.069C997.276 317.069 989.632 324.712 989.632 334.141L989.632 388.77 875.543 249.311 989.633 122.555 989.633 180.496C989.633 189.924 997.277 197.567 1006.71 197.567 1140.89 197.567 1241.3 290.42 1270.91 432.097 1215.95 355.685 1127.47 317.069 1006.7 317.069Z" fill="#6666FF"/></g></svg>