<svg width="512" height="512" xmlns="http://www.w3.org/2000/svg" xmlns:xlink="http://www.w3.org/1999/xlink" overflow="hidden"><defs><clipPath id="clip0"><rect x="384" y="104" width="512" height="512"/></clipPath></defs><g clip-path="url(#clip0)" transform="translate(-384 -104)"><path d="M672 616 608 616C593.067 616 576 603.2 576 577.6L576 532.8C576 511.467 565.333 492.267 548.267 477.333 509.867 447.467 490.667 404.8 490.667 357.867 492.8 276.8 558.933 212.8 637.867 210.667 678.4 210.667 716.8 225.6 744.533 253.333 772.267 281.067 789.333 319.467 789.333 360 789.333 404.8 770.133 447.467 733.867 475.2 714.667 490.133 704 513.6 704 534.933L704 584C704 601.067 689.067 616 672 616ZM640 232C571.733 232 514.133 289.6 512 357.867 512 398.4 529.067 436.8 561.067 460.267 584.533 479.467 597.333 505.067 597.333 532.8L597.333 577.6C597.333 581.867 597.333 594.667 608 594.667L672 594.667C678.4 594.667 682.667 590.4 682.667 584L682.667 534.933C682.667 507.2 697.6 477.333 721.067 458.133 750.933 434.667 768 398.4 768 360 768 325.867 755.2 293.867 729.6 268.267 706.133 244.8 674.133 232 640 232Z" fill="#FFFFFF"/><path d="M693.333 552 586.667 552C580.267 552 576 547.733 576 541.333 576 534.933 580.267 530.667 586.667 530.667L693.333 530.667C699.733 530.667 704 534.933 704 541.333 704 547.733 699.733 552 693.333 552Z" fill="#FFFFFF"/><path d="M640 168C633.6 168 629.333 163.733 629.333 157.333L629.333 114.667C629.333 108.267 633.6 104 640 104 646.4 104 650.667 108.267 650.667 114.667L650.667 157.333C650.667 163.733 646.4 168 640 168Z" fill="#FFFFFF"/><path d="M782.933 227.733C780.8 227.733 776.533 227.733 774.4 225.6 770.133 221.333 770.133 214.933 774.4 210.667L804.267 180.8C808.533 176.533 814.933 176.533 819.2 180.8 823.467 185.067 823.467 191.467 819.2 195.733L789.333 225.6C789.333 225.6 785.067 227.733 782.933 227.733Z" fill="#FFFFFF"/><path d="M885.333 370.667 842.667 370.667C836.267 370.667 832 366.4 832 360 832 353.6 836.267 349.333 842.667 349.333L885.333 349.333C891.733 349.333 896 353.6 896 360 896 366.4 891.733 370.667 885.333 370.667Z" fill="#FFFFFF"/><path d="M812.8 543.467C810.667 543.467 806.4 543.467 804.267 541.333L774.4 511.467C770.133 507.2 770.133 500.8 774.4 496.533 778.667 492.267 785.067 492.267 789.333 496.533L819.2 526.4C823.467 530.667 823.467 537.067 819.2 541.333 819.2 543.467 817.067 543.467 812.8 543.467Z" fill="#FFFFFF"/><path d="M467.2 543.467C465.067 543.467 460.8 543.467 458.667 541.333 454.4 537.067 454.4 530.667 458.667 526.4L488.533 496.533C492.8 492.267 499.2 492.267 503.467 496.533 507.733 500.8 507.733 507.2 503.467 511.467L473.6 541.333C471.467 543.467 469.333 543.467 467.2 543.467Z" fill="#FFFFFF"/><path d="M437.333 370.667 394.667 370.667C388.267 370.667 384 366.4 384 360 384 353.6 388.267 349.333 394.667 349.333L437.333 349.333C443.733 349.333 448 353.6 448 360 448 366.4 443.733 370.667 437.333 370.667Z" fill="#FFFFFF"/><path d="M497.067 227.733C494.933 227.733 490.667 227.733 488.533 225.6L458.667 193.6C454.4 189.333 454.4 182.933 458.667 178.667 462.933 174.4 469.333 174.4 473.6 178.667L503.467 208.533C507.733 212.8 507.733 219.2 503.467 223.467 501.333 225.6 499.2 227.733 497.067 227.733Z" fill="#FFFFFF"/><path d="M725.333 370.667C718.933 370.667 714.667 366.4 714.667 360 714.667 319.467 680.533 285.333 640 285.333 633.6 285.333 629.333 281.067 629.333 274.667 629.333 268.267 633.6 264 640 264 693.333 264 736 306.667 736 360 736 366.4 731.733 370.667 725.333 370.667Z" fill="#FFFFFF"/></g></svg>