<svg width="512" height="512" xmlns="http://www.w3.org/2000/svg" xmlns:xlink="http://www.w3.org/1999/xlink" overflow="hidden"><defs><clipPath id="clip0"><rect x="44" y="89" width="512" height="512"/></clipPath></defs><g clip-path="url(#clip0)" transform="translate(-44 -89)"><path d="M462.432 479.553 398.791 415.914C390.292 407.415 378.991 402.734 366.971 402.734 354.951 402.734 343.651 407.415 335.152 415.914 327.493 423.573 304.672 446.394 297.291 453.775 286.978 452.644 260.722 446.549 229.086 414.914 197.363 383.191 191.901 357.159 191.066 346.868 199.229 338.705 222.09 315.844 229.086 308.848 237.586 300.348 242.267 289.048 242.267 277.028 242.267 265.008 237.586 253.707 229.086 245.208L165.445 181.567C147.9 164.022 119.35 164.023 101.806 181.567L80.5931 202.78C80.5901 202.783 80.5882 202.785 80.5861 202.788 80.5831 202.791 80.5811 202.793 80.5781 202.795L80.5081 202.866C59.2891 224.086 46.434 252.244 44.313 282.154 42.197 311.981 50.877 341.701 68.7551 365.841 99.1062 406.824 131.638 444.746 165.446 478.555 200.789 513.898 240.819 548.592 278.16 576.246 299.917 592.359 326.207 601 353.023 601 355.959 601 358.902 600.896 361.846 600.687 391.756 598.566 419.913 585.711 441.118 564.507L441.204 564.421C441.207 564.418 441.209 564.416 441.211 564.413 441.213 564.411 441.216 564.408 441.219 564.406L462.432 543.193C470.932 534.693 475.613 523.393 475.613 511.373 475.613 499.353 470.932 488.052 462.432 479.553ZM123.019 202.781C128.867 196.933 138.383 196.932 144.232 202.781L207.873 266.422C213.721 272.27 213.721 281.787 207.873 287.635L197.267 298.241 112.413 213.387 123.019 202.781ZM296.014 552.137C259.825 525.336 220.989 491.67 186.66 457.34 153.894 424.575 122.337 387.783 92.8642 347.986 67.5331 313.782 67.7971 268.562 92.0112 235.413 94.8712 238.273 173.892 317.293 176.054 319.454L165.446 330.061C163.058 332.449 161.546 335.573 161.154 338.928 160.939 340.774 156.466 384.721 207.874 436.127 246.035 474.289 285.202 485.645 304.685 483.887 308.182 483.571 311.457 482.038 313.94 479.554L324.546 468.948 408.59 552.991C375.45 577.206 330.223 577.472 296.014 552.137ZM441.219 521.981 430.613 532.587 345.759 447.733 356.365 437.127C362.214 431.278 371.73 431.279 377.578 437.127L441.219 500.768C444.052 503.601 445.613 507.368 445.613 511.374 445.613 515.38 444.052 519.148 441.219 521.981Z" fill="#FFFF66"/><path d="M481.426 163.574C433.336 115.484 369.299 89 301.113 89 292.829 89 286.113 95.716 286.113 104 286.113 112.284 292.829 119 301.113 119 361.286 119 417.788 142.364 460.213 184.787 502.636 227.212 526 283.714 526 343.887 526 352.171 532.716 358.887 541 358.887 549.284 358.887 556 352.171 556 343.887 556 275.701 529.516 211.664 481.426 163.574Z" fill="#FFFF66"/><path d="M439 206C402.22 169.222 353.252 148.968 301.113 148.968 292.829 148.968 286.113 155.684 286.113 163.968 286.113 172.252 292.829 178.968 301.113 178.968 345.238 178.968 386.674 196.102 417.786 227.215 448.899 258.327 466.033 299.762 466.033 343.887 466.033 352.171 472.749 358.887 481.033 358.887 489.317 358.887 496.033 352.171 496.033 343.887 496.033 291.748 475.779 242.779 439 206Z" fill="#FFFF66"/><path d="M396.572 248.428C371.074 222.93 337.173 208.886 301.113 208.886 292.829 208.886 286.113 215.602 286.113 223.887 286.113 232.171 292.829 238.887 301.113 238.887 329.16 238.887 355.527 249.809 375.359 269.641 395.191 289.473 406.113 315.84 406.113 343.887 406.113 352.171 412.829 358.887 421.113 358.887 429.398 358.887 436.114 352.171 436.114 343.887 436.114 307.827 422.072 273.926 396.572 248.428Z" fill="#FFFF66"/></g></svg>