<svg width="552" height="552" xmlns="http://www.w3.org/2000/svg" xmlns:xlink="http://www.w3.org/1999/xlink" overflow="hidden"><defs><clipPath id="clip0"><rect x="115" y="84" width="552" height="552"/></clipPath></defs><g clip-path="url(#clip0)" transform="translate(-115 -84)"><path d="M653.199 323.015C653.183 323.004 653.17 322.986 653.157 322.973L427.985 97.8093C418.387 88.2072 405.626 82.9219 392.053 82.9219 378.48 82.9219 365.719 88.2072 356.117 97.8093L131.062 322.86C130.986 322.936 130.906 323.015 130.834 323.092 111.125 342.914 111.159 375.077 130.931 394.85 139.965 403.888 151.892 409.119 164.648 409.67 165.17 409.721 165.692 409.746 166.219 409.746L175.189 409.746 175.189 575.449C175.189 608.244 201.873 634.923 234.667 634.923L322.762 634.923C331.694 634.923 338.934 627.679 338.934 618.751L338.934 488.837C338.934 473.873 351.109 461.702 366.073 461.702L418.033 461.702C432.996 461.702 445.167 473.873 445.167 488.837L445.167 618.751C445.167 627.679 452.407 634.923 461.339 634.923L549.434 634.923C582.233 634.923 608.912 608.244 608.912 575.449L608.912 409.746 617.234 409.746C630.804 409.746 643.564 404.46 653.17 394.854 672.964 375.052 672.972 342.83 653.199 323.015ZM630.298 371.986C626.807 375.477 622.166 377.403 617.234 377.403L592.74 377.403C583.808 377.403 576.568 384.641 576.568 393.574L576.568 575.449C576.568 590.408 564.397 602.579 549.434 602.579L477.511 602.579 477.511 488.837C477.511 456.042 450.832 429.359 418.033 429.359L366.073 429.359C333.274 429.359 306.59 456.042 306.59 488.837L306.59 602.579 234.667 602.579C219.708 602.579 207.533 590.408 207.533 575.449L207.533 393.574C207.533 384.641 200.294 377.403 191.361 377.403L167.289 377.403C167.036 377.385 166.788 377.372 166.531 377.368 161.713 377.284 157.194 375.372 153.808 371.982 146.606 364.781 146.606 353.06 153.808 345.854 153.812 345.854 153.812 345.85 153.816 345.846L153.829 345.833 378.993 120.677C382.481 117.186 387.117 115.266 392.053 115.266 396.985 115.266 401.622 117.186 405.113 120.677L630.227 345.787C630.26 345.821 630.298 345.854 630.331 345.888 637.495 353.103 637.482 364.797 630.298 371.986Z" fill="#595959"/></g></svg>