<svg width="653" height="653" xmlns="http://www.w3.org/2000/svg" xmlns:xlink="http://www.w3.org/1999/xlink" overflow="hidden"><defs><clipPath id="clip0"><rect x="313" y="33" width="653" height="653"/></clipPath></defs><g clip-path="url(#clip0)" transform="translate(-313 -33)"><path d="M745.965 380.793 334.293 380.793C322.539 380.793 313 371.254 313 359.5 313 347.746 322.539 338.207 334.293 338.207L745.965 338.207C757.719 338.207 767.259 347.746 767.259 359.5 767.259 371.254 757.719 380.793 745.965 380.793Z" fill="#FFFFFF"/><path d="M632.402 494.357C626.948 494.357 621.501 492.287 617.351 488.114 609.034 479.796 609.034 466.311 617.351 457.988L715.871 359.473 617.351 260.955C609.034 252.637 609.034 239.147 617.351 230.829 625.675 222.511 639.16 222.511 647.478 230.829L761.041 344.398C769.359 352.715 769.359 366.201 761.041 374.519L647.478 488.082C643.303 492.287 637.856 494.357 632.402 494.357Z" fill="#FFFFFF"/><path d="M653.695 671.806C524.484 671.806 410.411 594.071 363.026 473.745 358.711 462.843 364.102 450.466 375.035 446.15 385.936 441.892 398.345 447.2 402.66 458.19 443.573 562.074 542.118 629.219 653.695 629.219 802.406 629.219 923.414 508.211 923.414 359.5 923.414 210.789 802.406 89.781 653.695 89.781 542.118 89.781 443.573 156.926 402.66 260.81 398.314 271.8 385.936 277.108 375.035 272.85 364.102 268.534 358.711 256.158 363.026 245.255 410.411 124.929 524.484 47.1941 653.695 47.1941 825.889 47.1941 966.001 187.306 966.001 359.5 966.001 531.694 825.889 671.806 653.695 671.806Z" fill="#FFFFFF"/></g></svg>