<svg width="330" height="330" xmlns="http://www.w3.org/2000/svg" xmlns:xlink="http://www.w3.org/1999/xlink" overflow="hidden"><defs><clipPath id="clip0"><rect x="475" y="195" width="330" height="330"/></clipPath></defs><g clip-path="url(#clip0)" transform="translate(-475 -195)"><path d="M51.213 180 224.998 180C233.282 180 239.998 173.284 239.998 165 239.998 156.716 233.282 150 224.998 150L51.213 150 70.607 130.607C76.465 124.75 76.465 115.252 70.607 109.394 64.751 103.536 55.253 103.536 49.394 109.394L4.397 154.391C4.049 154.738 3.721 155.101 3.409 155.481 3.333 155.574 3.268 155.674 3.194 155.769 2.965 156.06 2.74 156.352 2.534 156.66 2.474 156.75 2.425 156.845 2.366 156.936 2.16 157.258 1.958 157.583 1.776 157.922 1.741 157.989 1.712 158.06 1.677 158.127 1.488 158.494 1.306 158.866 1.147 159.25 1.127 159.297 1.113 159.347 1.094 159.395 0.931 159.799 0.78 160.208 0.652 160.629 0.635 160.682 0.626 160.737 0.611 160.791 0.49 161.204 0.379 161.621 0.294 162.048 0.269 162.175 0.258 162.306 0.235 162.434 0.173 162.788 0.111 163.142 0.076 163.503 0.025 163.998 0 164.498 0 165 0 165.502 0.025 166.002 0.076 166.498 0.111 166.864 0.175 167.221 0.236 167.578 0.258 167.702 0.269 167.829 0.294 167.952 0.38 168.383 0.49 168.804 0.612 169.221 0.627 169.27 0.636 169.322 0.651 169.371 0.78 169.794 0.931 170.207 1.096 170.615 1.114 170.659 1.127 170.706 1.146 170.75 1.306 171.137 1.489 171.511 1.68 171.88 1.713 171.945 1.741 172.013 1.775 172.078 1.959 172.419 2.162 172.747 2.371 173.072 2.427 173.16 2.475 173.253 2.533 173.339 2.74 173.648 2.967 173.942 3.195 174.234 3.268 174.328 3.333 174.427 3.408 174.519 3.721 174.898 4.049 175.262 4.396 175.609L49.393 220.606C52.322 223.536 56.161 225 60 225 63.839 225 67.678 223.536 70.606 220.606 76.464 214.748 76.464 205.251 70.606 199.393L51.213 180Z" fill="#9966FF" transform="matrix(-1 0 0 1 805 195)"/><path d="M207.299 42.299C166.355 42.299 128.261 62.611 105.396 96.632 100.776 103.507 102.604 112.827 109.479 117.448 116.355 122.068 125.674 120.242 130.296 113.365 147.577 87.65 176.363 72.298 207.299 72.298 258.414 72.299 300 113.884 300 165 300 216.116 258.414 257.701 207.299 257.701 176.454 257.701 147.715 242.418 130.421 216.82 125.782 209.955 116.46 208.151 109.594 212.788 102.73 217.426 100.924 226.75 105.562 233.614 128.443 267.482 166.475 287.701 207.299 287.701 274.956 287.701 330 232.658 330 165 330 97.342 274.956 42.299 207.299 42.299Z" fill="#9966FF" transform="matrix(-1 0 0 1 805 195)"/></g></svg>