<svg width="512" height="512" xmlns="http://www.w3.org/2000/svg" xmlns:xlink="http://www.w3.org/1999/xlink" overflow="hidden"><defs><clipPath id="clip0"><rect x="384" y="104" width="512" height="512"/></clipPath></defs><g clip-path="url(#clip0)" transform="translate(-384 -104)"><path d="M699.108 252.084C699.104 219.44 672.636 192.98 639.992 192.984 607.348 192.988 580.888 219.456 580.892 252.1 580.896 284.741 607.359 311.2 640 311.2 672.631 311.16 699.073 284.715 699.108 252.084ZM594.892 252.084C594.896 227.172 615.096 206.98 640.008 206.984 664.92 206.988 685.112 227.188 685.108 252.1 685.104 277.009 664.909 297.2 640 297.2 615.096 297.171 594.916 276.988 594.892 252.084Z" fill="#595959"/><path d="M877.312 588.276 820.248 438.676C819.212 435.964 816.612 434.173 813.708 434.172L705.708 434.172C706.368 433.096 707.024 432.052 707.684 430.972 749.24 362.172 770.152 301.988 769.852 252.116 769.864 180.398 711.736 122.25 640.018 122.238 568.3 122.226 510.152 180.354 510.14 252.072 509.84 301.988 530.752 362.18 572.308 430.972 572.968 432.064 573.624 433.108 574.284 434.172L466.284 434.172C463.381 434.173 460.78 435.964 459.744 438.676L402.688 588.276C401.305 591.88 403.107 595.924 406.712 597.308 407.515 597.616 408.368 597.772 409.228 597.772L870.772 597.772C874.632 597.78 877.768 594.652 877.776 590.792 877.776 589.932 877.62 589.08 877.312 588.276ZM524.144 252.084C524.155 188.098 576.034 136.237 640.02 136.248 704.006 136.259 755.867 188.138 755.856 252.124 756.456 351.556 663.496 474.192 640 503.6 616.504 474.204 523.54 351.6 524.144 252.084ZM634.668 519.2C637.173 522.144 641.591 522.5 644.536 519.996 644.822 519.752 645.088 519.488 645.332 519.2 663.918 496.559 681.148 472.839 696.932 448.164L808.88 448.164 817.84 471.664 599.076 549.468 521.1 448.152 583.06 448.152C598.847 472.832 616.08 496.556 634.668 519.2ZM598.832 564.4 598.872 564.4 729.38 518 780 583.772 544.4 583.772ZM471.112 448.152 503.432 448.152 585.2 554.4 502.628 583.768 419.388 583.768ZM797.684 583.772 743.248 513.044 822.848 484.736 860.62 583.772Z" fill="#595959"/></g></svg>