<svg width="512" height="512" xmlns="http://www.w3.org/2000/svg" xmlns:xlink="http://www.w3.org/1999/xlink" overflow="hidden"><defs><clipPath id="clip0"><rect x="384" y="104" width="512" height="512"/></clipPath></defs><g clip-path="url(#clip0)" transform="translate(-384 -104)"><path d="M725.476 442.285C779.959 356.792 773.11 367.458 774.68 365.229 794.516 337.251 805 304.322 805 270 805 178.98 731.139 104 640 104 549.158 104 475 178.832 475 270 475 304.3 485.704 338.091 506.19 366.446L554.522 442.286C502.847 450.227 415 473.892 415 526 415 544.995 427.398 572.065 486.462 593.159 527.704 607.888 582.231 616 640 616 748.025 616 865 585.528 865 526 865 473.883 777.256 450.243 725.476 442.285ZM531.249 349.945C531.084 349.687 530.912 349.435 530.732 349.187 513.685 325.735 505 297.941 505 270 505 194.982 565.406 134 640 134 714.439 134 775 195.009 775 270 775 297.986 766.479 324.837 750.354 347.671 748.909 349.577 756.448 337.865 640 520.589L531.249 349.945ZM640 586C522.006 586 445 551.317 445 526 445 508.984 484.568 481.005 572.248 470.099L627.35 556.562C630.104 560.884 634.874 563.5 639.999 563.5 645.124 563.5 649.895 560.883 652.648 556.562L707.749 470.099C795.431 481.005 835 508.984 835 526 835 551.102 758.687 586 640 586Z" fill="#FF9999"/><path d="M640 195C598.645 195 565 228.645 565 270 565 311.355 598.645 345 640 345 681.355 345 715 311.355 715 270 715 228.645 681.355 195 640 195ZM640 315C615.187 315 595 294.813 595 270 595 245.187 615.187 225 640 225 664.813 225 685 245.187 685 270 685 294.813 664.813 315 640 315Z" fill="#FF9999"/></g></svg>