<svg width="124" height="124" xmlns="http://www.w3.org/2000/svg" xmlns:xlink="http://www.w3.org/1999/xlink" overflow="hidden"><defs><clipPath id="clip0"><rect x="578" y="298" width="124" height="124"/></clipPath></defs><g clip-path="url(#clip0)" transform="translate(-578 -298)"><path d="M690 304 590 304C583.4 304 578 309.4 578 316 578 322.6 583.4 328 590 328L690 328C696.6 328 702 322.6 702 316 702 309.4 696.6 304 690 304Z" fill="#FFFFFF"/><path d="M690 348 590 348C583.4 348 578 353.4 578 360 578 366.6 583.4 372 590 372L690 372C696.6 372 702 366.6 702 360 702 353.4 696.6 348 690 348Z" fill="#FFFFFF"/><path d="M690 392 590 392C583.4 392 578 397.4 578 404 578 410.6 583.4 416 590 416L690 416C696.6 416 702 410.6 702 404 702 397.4 696.6 392 690 392Z" fill="#FFFFFF"/></g></svg>