<svg width="512" height="512" xmlns="http://www.w3.org/2000/svg" xmlns:xlink="http://www.w3.org/1999/xlink" overflow="hidden"><defs><clipPath id="clip0"><rect x="384" y="104" width="512" height="512"/></clipPath></defs><g clip-path="url(#clip0)" transform="translate(-384 -104)"><path d="M809.951 193.021C770.864 136.451 708.917 104 640.006 104 571.095 104 509.148 136.451 470.061 193.021 431.166 249.305 422.185 320.562 445.989 383.517 452.356 400.709 462.477 417.412 475.999 433.064L626.377 609.698C629.778 613.696 634.761 616 640.006 616 645.251 616 650.234 613.697 653.635 609.698L803.971 433.112C817.553 417.37 827.661 400.685 833.975 383.631 857.827 320.562 848.846 249.305 809.951 193.021ZM800.451 371.093C795.582 384.251 787.633 397.26 776.838 409.773 776.808 409.803 776.778 409.833 776.754 409.869L640.006 570.487 503.174 409.768C492.385 397.266 484.436 384.258 479.519 370.974 459.833 318.909 467.304 259.993 499.51 213.382 531.817 166.622 583.029 139.804 640.006 139.804 696.982 139.804 748.188 166.621 780.496 213.382 812.708 259.993 820.185 318.909 800.451 371.093Z" fill="#595959"/><path d="M640.006 210.219C584.73 210.219 539.754 255.189 539.754 310.471 539.754 365.753 584.724 410.723 640.006 410.723 695.288 410.723 740.258 365.753 740.258 310.471 740.258 255.195 695.282 210.219 640.006 210.219ZM640.006 374.918C604.47 374.918 575.558 346.006 575.558 310.47 575.558 274.934 604.47 246.022 640.006 246.022 675.542 246.022 704.454 274.934 704.454 310.47 704.454 346.006 675.542 374.918 640.006 374.918Z" fill="#595959"/></g></svg>