<svg width="683" height="683" xmlns="http://www.w3.org/2000/svg" xmlns:xlink="http://www.w3.org/1999/xlink" overflow="hidden"><defs><clipPath id="clip0"><rect x="298" y="18" width="683" height="683"/></clipPath></defs><g clip-path="url(#clip0)" transform="translate(-298 -18)"><path d="M615.666 199.714 624.201 194.414 624.201 344.201C624.201 363.032 670.103 363.032 670.103 344.201L670.103 157.041C670.103 148.215 659.218 142.623 649.802 142.623 640.798 142.623 641.965 145.291 602.425 168.224 584.192 179.161 598.287 211.297 615.666 199.714Z" fill="#66FF99"/><path d="M954.32 122.942 849.4 122.942 849.4 44.6797C849.4 29.9433 837.457 18 822.72 18L456.28 18C441.549 18 429.601 29.9433 429.601 44.6797L429.601 122.942 324.68 122.942C309.943 122.942 298 134.885 298 149.622L298 215.044C298 293.222 354.986 358.338 429.601 371.047L429.601 408.967C429.601 417.888 434.061 426.215 441.482 431.166 492.882 465.432 551.64 485.583 612.82 490.132L612.82 540.922 586.141 540.922C512.583 540.922 452.742 600.763 452.742 674.32 452.742 689.057 464.685 701 479.422 701L808.817 701C823.548 701 835.497 689.057 835.497 674.32 835.497 600.763 775.654 540.922 702.099 540.922L666.18 540.922 666.18 490.126C727.36 485.583 786.118 465.432 837.518 431.166 844.939 426.215 849.4 417.888 849.4 408.961L849.4 371.047C924.014 358.338 981 293.222 981 215.044L981 149.622C981 134.885 969.057 122.942 954.32 122.942ZM429.601 316.506C384.631 304.676 351.359 263.677 351.359 215.044L351.359 176.301 429.601 176.301ZM777.562 647.641 510.672 647.641C521.682 616.584 551.358 594.281 586.141 594.281L702.099 594.281C736.881 594.281 766.551 616.584 777.562 647.641ZM796.04 394.304C699.545 452.457 579.444 452.452 482.96 394.304L482.96 71.3594 796.04 71.3594ZM927.641 215.044C927.641 263.677 894.37 304.676 849.4 316.506L849.4 176.301 927.641 176.301Z" fill="#66FF99"/></g></svg>