<svg width="512" height="512" xmlns="http://www.w3.org/2000/svg" xmlns:xlink="http://www.w3.org/1999/xlink" overflow="hidden"><defs><clipPath id="clip0"><rect x="384" y="104" width="512" height="512"/></clipPath></defs><g clip-path="url(#clip0)" transform="translate(-384 -104)"><path d="M834.979 298.979C834.979 191.468 747.512 104 640 104 532.488 104 445.021 191.468 445.021 298.979 445.021 367.866 480.929 428.523 535.011 463.216L535.011 616.001 640 577.622 744.989 616.001 744.989 463.216C799.071 428.523 834.979 367.866 834.979 298.979ZM565.008 478.951C583.718 486.777 603.893 491.774 625.002 493.387L625.002 551.165 565.008 573.096ZM714.992 573.097 654.998 551.166 654.998 493.388C676.107 491.774 696.283 486.778 714.992 478.952ZM640 463.962C549.029 463.962 475.017 389.951 475.017 298.979 475.017 208.008 549.029 133.997 640 133.997 730.971 133.997 804.983 208.008 804.983 298.979 804.983 389.951 730.972 463.962 640 463.962Z" fill="#00FF99"/><path d="M735.449 203.531C709.954 178.034 676.056 163.994 640 163.994 603.944 163.994 570.046 178.034 544.551 203.531 491.92 256.162 491.92 341.799 544.551 394.429L565.762 373.219C524.827 332.283 524.827 265.677 565.762 224.741 585.592 204.911 611.956 193.991 640 193.991 668.044 193.991 694.408 204.911 714.238 224.74 720.56 231.062 725.902 237.997 730.271 245.353L673.428 268.898C665.187 259.749 653.256 253.984 640 253.984 615.19 253.984 595.005 274.169 595.005 298.979 595.005 323.79 615.19 343.975 640 343.975 664.81 343.975 684.995 323.79 684.995 298.979 684.995 298.183 684.973 297.39 684.932 296.603L741.714 273.082C750.487 307.783 741.333 346.122 714.238 373.218L735.449 394.428C788.08 341.798 788.08 256.161 735.449 203.531ZM640 313.978C631.73 313.978 625.002 307.25 625.002 298.979 625.002 290.709 631.73 283.981 640 283.981 648.27 283.981 654.998 290.709 654.998 298.979 654.998 307.25 648.271 313.978 640 313.978Z" fill="#00FF99"/><path d="M610.003 388.97 669.997 388.97 669.997 418.967 610.003 418.967Z" fill="#00FF99"/></g></svg>