<svg width="512" height="512" xmlns="http://www.w3.org/2000/svg" xmlns:xlink="http://www.w3.org/1999/xlink" overflow="hidden"><defs><clipPath id="clip0"><rect x="693" y="104" width="512" height="512"/></clipPath></defs><g clip-path="url(#clip0)" transform="translate(-693 -104)"><path d="M945.352 350.633C979.234 350.633 1008.57 338.48 1032.55 314.504 1056.52 290.531 1068.67 261.199 1068.67 227.312 1068.67 193.437 1056.52 164.101 1032.54 140.121 1008.57 116.152 979.23 104 945.352 104 911.465 104 882.133 116.152 858.16 140.125 834.188 164.098 822.031 193.433 822.031 227.312 822.031 261.199 834.188 290.535 858.16 314.508 882.141 338.477 911.477 350.633 945.352 350.633ZM879.379 161.34C897.773 142.945 919.352 134.004 945.352 134.004 971.348 134.004 992.93 142.945 1011.33 161.34 1029.72 179.738 1038.67 201.32 1038.67 227.312 1038.67 253.312 1029.72 274.891 1011.33 293.289 992.93 311.688 971.348 320.629 945.352 320.629 919.359 320.629 897.781 311.684 879.379 293.289 860.98 274.895 852.035 253.312 852.035 227.312 852.035 201.32 860.98 179.738 879.379 161.34Z" fill="#595959"/><path d="M1161.13 497.702C1160.44 487.726 1159.04 476.843 1156.98 465.351 1154.9 453.772 1152.23 442.827 1149.02 432.823 1145.71 422.483 1141.21 412.272 1135.65 402.487 1129.88 392.331 1123.1 383.487 1115.49 376.21 1107.53 368.597 1097.79 362.476 1086.52 358.011 1075.3 353.57 1062.85 351.32 1049.55 351.32 1044.32 351.32 1039.27 353.465 1029.5 359.82 1023.5 363.737 1016.47 368.269 1008.62 373.28 1001.92 377.554 992.832 381.558 981.609 385.183 970.66 388.726 959.543 390.522 948.566 390.522 937.598 390.522 926.48 388.726 915.523 385.183 904.312 381.561 895.223 377.558 888.527 373.284 880.758 368.319 873.727 363.788 867.629 359.815 857.875 353.461 852.82 351.315 847.594 351.315 834.281 351.315 821.844 353.57 810.621 358.016 799.364 362.472 789.617 368.593 781.653 376.214 774.043 383.495 767.262 392.335 761.496 402.487 755.938 412.272 751.438 422.479 748.125 432.827 744.926 442.831 742.25 453.772 740.172 465.351 738.11 476.827 736.715 487.714 736.024 497.714 735.344 507.491 735 517.667 735 527.948 735 554.675 743.497 576.311 760.25 592.269 776.797 608.015 798.688 615.999 825.317 615.999L1071.85 615.999C1098.47 615.999 1120.36 608.015 1136.91 592.269 1153.67 576.323 1162.16 554.679 1162.16 527.944 1162.16 517.628 1161.81 507.452 1161.13 497.702ZM1116.22 570.53C1105.29 580.937 1090.77 585.995 1071.84 585.995L825.317 585.995C806.383 585.995 791.867 580.937 780.938 570.534 770.215 560.327 765.004 546.394 765.004 527.948 765.004 518.354 765.321 508.882 765.953 499.788 766.571 490.866 767.832 481.065 769.703 470.651 771.551 460.366 773.903 450.714 776.7 441.976 779.383 433.597 783.043 425.3 787.582 417.308 791.914 409.69 796.899 403.155 802.399 397.89 807.543 392.964 814.028 388.933 821.668 385.909 828.735 383.112 836.676 381.581 845.297 381.351 846.348 381.909 848.219 382.976 851.25 384.952 857.418 388.972 864.527 393.558 872.387 398.577 881.246 404.226 892.66 409.327 906.297 413.729 920.238 418.237 934.457 420.526 948.57 420.526 962.684 420.526 976.906 418.237 990.84 413.733 1004.49 409.323 1015.9 404.226 1024.77 398.569 1032.81 393.429 1039.72 388.976 1045.89 384.952 1048.92 382.979 1050.79 381.909 1051.84 381.351 1060.47 381.581 1068.41 383.112 1075.48 385.909 1083.12 388.933 1089.6 392.968 1094.75 397.89 1100.25 403.151 1105.23 409.687 1109.56 417.311 1114.1 425.3 1117.77 433.601 1120.45 441.972 1123.25 450.722 1125.6 460.37 1127.45 470.647 1129.32 481.081 1130.58 490.886 1131.2 499.792L1131.2 499.8C1131.84 508.858 1132.16 518.327 1132.16 527.948 1132.16 546.397 1126.94 560.327 1116.22 570.53Z" fill="#595959"/></g></svg>